<?xml version="1.0" encoding="UTF-8" standalone="no"?>
<!-- Created with Inkscape (http://www.inkscape.org/) -->

<svg
   xmlns:dc="http://purl.org/dc/elements/1.1/"
   xmlns:cc="http://creativecommons.org/ns#"
   xmlns:rdf="http://www.w3.org/1999/02/22-rdf-syntax-ns#"
   xmlns:svg="http://www.w3.org/2000/svg"
   xmlns="http://www.w3.org/2000/svg"
   xmlns:sodipodi="http://sodipodi.sourceforge.net/DTD/sodipodi-0.dtd"
   xmlns:inkscape="http://www.inkscape.org/namespaces/inkscape"
   width="210mm"
   height="297mm"
   viewBox="0 0 210 297"
   version="1.1"
   id="svg8"
   inkscape:version="0.92.3 (2405546, 2018-03-11)"
   sodipodi:docname="SistemasGJ.svg">
  <defs
     id="defs2" />
  <sodipodi:namedview
     id="base"
     pagecolor="#ffffff"
     bordercolor="#666666"
     borderopacity="1.0"
     inkscape:pageopacity="0.0"
     inkscape:pageshadow="2"
     inkscape:zoom="0.7"
     inkscape:cx="-3.8585096"
     inkscape:cy="900.67559"
     inkscape:document-units="mm"
     inkscape:current-layer="layer1"
     showgrid="false"
     inkscape:snap-intersection-paths="true"
     inkscape:snap-smooth-nodes="true"
     inkscape:snap-midpoints="false"
     inkscape:snap-nodes="true"
     inkscape:object-nodes="true"
     inkscape:snap-bbox="true"
     inkscape:bbox-nodes="true"
     inkscape:snap-bbox-edge-midpoints="true"
     inkscape:snap-bbox-midpoints="true"
     inkscape:window-width="1366"
     inkscape:window-height="705"
     inkscape:window-x="-8"
     inkscape:window-y="-8"
     inkscape:window-maximized="1" />
  <metadata
     id="metadata5">
    <rdf:RDF>
      <cc:Work
         rdf:about="">
        <dc:format>image/svg+xml</dc:format>
        <dc:type
           rdf:resource="http://purl.org/dc/dcmitype/StillImage" />
        <dc:title />
      </cc:Work>
    </rdf:RDF>
  </metadata>
  <g
     inkscape:label="Capa 1"
     inkscape:groupmode="layer"
     id="layer1">
    <rect
       id="rect23"
       width="19.276785"
       height="9.4494047"
       x="45.237434"
       y="26.623726"
       style="fill:#ff0000;stroke-width:0.26458332" />
    <rect
       style="fill:#ff0000;stroke-width:0.26458332"
       id="rect25"
       width="12.851191"
       height="16.630953"
       x="29.113586"
       y="38.447529" />
    <rect
       style="fill:#ff0000;stroke-width:0.26458332"
       id="rect31"
       width="18.520834"
       height="8.6934528"
       x="45.546135"
       y="58.119057" />
    <rect
       style="fill:#ff0000;stroke-width:0.26458332"
       id="rect41"
       width="9.0871639"
       height="9.6217022"
       x="55.466969"
       y="42.617069" />
    <path
       style="fill:#ff0000;stroke:none;stroke-width:0.26458332px;stroke-linecap:butt;stroke-linejoin:miter;stroke-opacity:1"
       d="m 29.274556,35.668058 12.561668,0.133636 0.07018,-8.953529 c -2.813974,0.322623 -6.620134,0.07828 -8.961638,1.865561 -2.727943,1.659869 -2.989769,3.210982 -3.772807,4.473407 z"
       id="path43"
       inkscape:connector-curvature="0"
       sodipodi:nodetypes="cccccc" />
    <path
       style="fill:#ff0000;fill-opacity:1;stroke:none;stroke-width:0.26458332px;stroke-linecap:butt;stroke-linejoin:miter;stroke-opacity:1"
       d="M 41.852437,58.786873 H 29.408189 l 0.53454,3.875408 c 0.624317,2.200532 1.470135,3.113083 4.142677,4.276312 l 7.750818,0.267269 z"
       id="path34"
       inkscape:connector-curvature="0"
       sodipodi:nodetypes="cccccc" />
    <rect
       style="fill:#000000;fill-opacity:1;stroke:none;stroke-width:0.26458332"
       id="rect841"
       width="13.890625"
       height="8.7879467"
       x="67.46875"
       y="58.591515" />
    <rect
       style="fill:#000000;fill-opacity:1;stroke:none;stroke-width:0.26458332"
       id="rect843"
       width="18.237352"
       height="9.1659222"
       x="46.39658"
       y="74.088547" />
    <path
       style="fill:#000000;stroke:#000000;stroke-width:0.26458332px;stroke-linecap:butt;stroke-linejoin:miter;stroke-opacity:1"
       d="m 67.657736,55.189731 13.04018,0.188989 v -6.709079 c -0.154468,-2.298395 -3.152584,-4.908582 -5.669642,-5.38616 L 67.75223,42.999998 Z"
       id="path845"
       inkscape:connector-curvature="0"
       sodipodi:nodetypes="cccccc" />
    <path
       style="fill:#000000;stroke:#000000;stroke-width:0.26458332px;stroke-linecap:butt;stroke-linejoin:miter;stroke-opacity:1"
       d="m 67.846725,71.06473 -0.09449,12.000744 h 6.142112 c 3.386116,-0.50383 6.521947,-2.027285 6.803572,-5.953125 l 0.09449,-5.858629 z"
       id="path847"
       inkscape:connector-curvature="0"
       sodipodi:nodetypes="cccccc" />
    <path
       style="fill:#000000;stroke:#000000;stroke-width:0.26458332px;stroke-linecap:butt;stroke-linejoin:miter;stroke-opacity:1"
       d="M 3.82009,65.062481 3.7382,98.985746 c 0.155842,3.357864 2.713243,5.874474 6.694003,6.252784 l 36.190659,0.27635 0.10521,-4.44098 -29.292611,-0.25969 c -6.53226,0.0897 -8.19696,-2.909094 -8.955696,-8.809598 l 0.06524,-27.025219 2.56741,0.06155 -4.535585,-6.775396 -4.926683,6.767376 z"
       id="path849"
       inkscape:connector-curvature="0"
       sodipodi:nodetypes="cccccccccccc" />
    <path
       style="fill:#000000;stroke:#000000;stroke-width:0.26458332px;stroke-linecap:butt;stroke-linejoin:miter;stroke-opacity:1"
       d="m 106.4666,45.010926 0.11281,-33.92318 C 106.42663,7.7297452 103.87152,5.2108062 99.891109,4.8288672 l -36.19041,-0.309333 -0.109261,4.440883 29.292371,0.286386 c 6.53233,-0.08375 8.194311,2.9165598 8.947661,8.8177568 l -0.0899,27.025148 -2.567361,-0.06393 4.529411,6.779526 4.93286,-6.762883 z"
       id="path849-5"
       inkscape:connector-curvature="0"
       sodipodi:nodetypes="cccccccccccc" />
    <path
       style="fill:#ff0000;stroke:none;stroke-width:0.26458332px;stroke-linecap:butt;stroke-linejoin:miter;stroke-opacity:1"
       d="m 64.686453,106.1366 33.923046,-0.14805 c 3.356721,-0.17859 5.855941,-2.753 6.207261,-6.736234 l 0.031,-36.191718 -4.4416,-0.07511 -0.0611,29.293707 c 0.13398,6.531501 -2.853461,8.216505 -8.748691,9.015215 l -27.025042,0.11791 0.04415,-2.567774 -6.744497,4.581414 6.800619,4.88071 z"
       id="path849-5-6"
       inkscape:connector-curvature="0"
       sodipodi:nodetypes="cccccccccccc" />
    <path
       style="fill:#ff0000;stroke:none;stroke-width:0.26458332px;stroke-linecap:butt;stroke-linejoin:miter;stroke-opacity:1"
       d="M 44.681685,5.1068412 10.761789,4.6218572 C 7.402321,4.7377772 4.855497,7.2651022 4.429911,11.241083 L 3.723573,47.425922 8.162998,47.5839 8.770713,18.296435 c -0.01208,-6.532865 3.006284,-8.161827 8.915391,-8.8503908 l 27.022535,0.386401 -0.09211,2.5664978 6.828811,-4.4547568 -6.708357,-5.006757 z"
       id="path849-5-6-5"
       inkscape:connector-curvature="0"
       sodipodi:nodetypes="cccccccccccc" />
  </g>
</svg>
